<svg xmlns="http://www.w3.org/2000/svg" xmlns:xlink="http://www.w3.org/1999/xlink" width="800" zoomAndPan="magnify" viewBox="0 0 600 149.999998" height="200" preserveAspectRatio="xMidYMid meet" version="1.0"><defs><g/><clipPath id="3d4b9fa411"><path d="M 16 12 L 129 12 L 129 138 L 16 138 Z M 16 12 " clip-rule="nonzero"/></clipPath><clipPath id="eb570d3c7c"><path d="M 122.003906 87.398438 C 124.296875 88.707031 126.25 90.691406 127.53125 93.261719 C 130.554688 99.335938 128.675781 106.820312 123.128906 110.726562 C 116.265625 115.5625 106.867188 113.277344 102.929688 106.023438 C 99.402344 99.527344 101.671875 91.292969 108.023438 87.511719 C 108.136719 87.445312 108.246094 87.382812 108.359375 87.320312 C 110.988281 85.851562 112.585938 83.046875 112.585938 80.035156 L 112.585938 69.933594 C 112.585938 66.863281 110.886719 64.089844 108.222656 62.570312 C 108.175781 62.539062 108.125 62.511719 108.074219 62.484375 C 105.457031 60.941406 102.21875 60.90625 99.589844 62.425781 L 90.835938 67.480469 C 88.21875 68.992188 86.609375 71.800781 86.644531 74.824219 C 86.695312 79.664062 84.207031 84.390625 79.714844 86.984375 C 75.226562 89.578125 69.886719 89.371094 65.722656 86.90625 C 63.117188 85.363281 59.882812 85.351562 57.261719 86.863281 L 48.511719 91.917969 C 45.878906 93.433594 44.292969 96.257812 44.316406 99.292969 C 44.316406 99.351562 44.316406 99.410156 44.316406 99.464844 C 44.304688 102.53125 45.855469 105.390625 48.511719 106.925781 L 57.261719 111.976562 C 59.902344 113.503906 63.148438 113.445312 65.777344 111.902344 C 65.804688 111.886719 65.832031 111.871094 65.859375 111.855469 C 72.484375 108.03125 80.960938 110.300781 84.789062 116.929688 C 88.617188 123.558594 86.34375 132.03125 79.714844 135.859375 C 73.089844 139.6875 64.613281 137.414062 60.785156 130.789062 C 59.488281 128.542969 58.894531 126.089844 58.929688 123.671875 C 58.976562 120.65625 57.347656 117.863281 54.734375 116.351562 L 45.988281 111.300781 C 43.34375 109.777344 40.101562 109.835938 37.46875 111.375 C 37.441406 111.390625 37.417969 111.40625 37.390625 111.421875 C 30.476562 115.414062 21.554688 112.773438 17.992188 105.472656 C 15.003906 99.347656 16.988281 91.855469 22.605469 88 C 22.96875 87.753906 23.332031 87.527344 23.707031 87.320312 C 26.335938 85.851562 27.933594 83.046875 27.933594 80.035156 L 27.933594 69.933594 C 27.933594 66.867188 26.234375 64.089844 23.570312 62.570312 C 21.277344 61.261719 19.328125 59.277344 18.046875 56.703125 C 15.019531 50.632812 16.898438 43.148438 22.445312 39.242188 C 29.304688 34.40625 38.707031 36.6875 42.644531 43.941406 C 46.171875 50.4375 43.902344 58.675781 37.550781 62.453125 C 37.441406 62.519531 37.328125 62.585938 37.214844 62.648438 C 34.585938 64.117188 32.988281 66.921875 32.988281 69.933594 L 32.988281 80.035156 C 32.988281 83.101562 34.6875 85.875 37.351562 87.398438 C 37.402344 87.425781 37.449219 87.457031 37.5 87.484375 C 40.117188 89.023438 43.355469 89.058594 45.984375 87.539062 L 54.738281 82.488281 C 57.359375 80.976562 58.964844 78.167969 58.929688 75.140625 C 58.878906 70.300781 61.367188 65.574219 65.859375 62.980469 C 70.351562 60.390625 75.6875 60.597656 79.855469 63.0625 C 82.457031 64.605469 85.691406 64.617188 88.3125 63.101562 L 97.0625 58.050781 C 99.695312 56.53125 101.285156 53.710938 101.257812 50.671875 C 101.257812 50.617188 101.257812 50.558594 101.257812 50.503906 C 101.269531 47.433594 99.71875 44.574219 97.0625 43.042969 L 88.3125 37.992188 C 85.671875 36.464844 82.429688 36.523438 79.796875 38.066406 C 79.769531 38.082031 79.742188 38.097656 79.71875 38.109375 C 73.089844 41.9375 64.613281 39.667969 60.785156 33.039062 C 56.960938 26.410156 59.230469 17.933594 65.859375 14.109375 C 72.488281 10.28125 80.964844 12.550781 84.789062 19.179688 C 86.085938 21.425781 86.679688 23.878906 86.644531 26.292969 C 86.601562 29.3125 88.226562 32.105469 90.839844 33.613281 L 99.589844 38.664062 C 102.230469 40.191406 105.472656 40.132812 108.105469 38.589844 C 108.132812 38.574219 108.160156 38.558594 108.183594 38.542969 C 115.097656 34.554688 124.023438 37.195312 127.585938 44.496094 C 130.570312 50.621094 128.589844 58.113281 122.96875 61.964844 C 122.609375 62.210938 122.242188 62.441406 121.871094 62.648438 C 119.238281 64.117188 117.640625 66.921875 117.640625 69.933594 L 117.640625 80.035156 C 117.640625 83.101562 119.34375 85.875 122.003906 87.398438 Z M 122.003906 87.398438 " clip-rule="nonzero"/></clipPath><linearGradient x1="-20.172028" gradientTransform="matrix(0.250942, 0, 0, 0.250942, 16.60603, 12.248201)" y1="494.05404" x2="467.794697" gradientUnits="userSpaceOnUse" y2="6.087292" id="ae95613353"><stop stop-opacity="1" stop-color="rgb(45.098877%, 24.699402%, 97.599792%)" offset="0"/><stop stop-opacity="1" stop-color="rgb(45.098877%, 24.699402%, 97.599792%)" offset="0.125"/><stop stop-opacity="1" stop-color="rgb(45.098877%, 24.699402%, 97.599792%)" offset="0.140625"/><stop stop-opacity="1" stop-color="rgb(45.13092%, 24.714661%, 97.561646%)" offset="0.148438"/><stop stop-opacity="1" stop-color="rgb(45.425415%, 24.856567%, 97.215271%)" offset="0.152344"/><stop stop-opacity="1" stop-color="rgb(45.687866%, 24.983215%, 96.908569%)" offset="0.15625"/><stop stop-opacity="1" stop-color="rgb(45.950317%, 25.108337%, 96.600342%)" offset="0.160156"/><stop stop-opacity="1" stop-color="rgb(46.212769%, 25.234985%, 96.292114%)" offset="0.164062"/><stop stop-opacity="1" stop-color="rgb(46.47522%, 25.361633%, 95.983887%)" offset="0.167969"/><stop stop-opacity="1" stop-color="rgb(46.737671%, 25.488281%, 95.677185%)" offset="0.171875"/><stop stop-opacity="1" stop-color="rgb(47.000122%, 25.613403%, 95.368958%)" offset="0.175781"/><stop stop-opacity="1" stop-color="rgb(47.264099%, 25.740051%, 95.06073%)" offset="0.179688"/><stop stop-opacity="1" stop-color="rgb(47.52655%, 25.866699%, 94.752502%)" offset="0.183594"/><stop stop-opacity="1" stop-color="rgb(47.789001%, 25.993347%, 94.444275%)" offset="0.1875"/><stop stop-opacity="1" stop-color="rgb(48.051453%, 26.118469%, 94.136047%)" offset="0.191406"/><stop stop-opacity="1" stop-color="rgb(48.313904%, 26.245117%, 93.829346%)" offset="0.195312"/><stop stop-opacity="1" stop-color="rgb(48.576355%, 26.371765%, 93.521118%)" offset="0.199219"/><stop stop-opacity="1" stop-color="rgb(48.838806%, 26.498413%, 93.212891%)" offset="0.203125"/><stop stop-opacity="1" stop-color="rgb(49.101257%, 26.623535%, 92.904663%)" offset="0.207031"/><stop stop-opacity="1" stop-color="rgb(49.363708%, 26.750183%, 92.597961%)" offset="0.210938"/><stop stop-opacity="1" stop-color="rgb(49.62616%, 26.876831%, 92.289734%)" offset="0.214844"/><stop stop-opacity="1" stop-color="rgb(49.888611%, 27.003479%, 91.981506%)" offset="0.21875"/><stop stop-opacity="1" stop-color="rgb(50.151062%, 27.128601%, 91.673279%)" offset="0.222656"/><stop stop-opacity="1" stop-color="rgb(50.413513%, 27.255249%, 91.365051%)" offset="0.226562"/><stop stop-opacity="1" stop-color="rgb(50.675964%, 27.381897%, 91.056824%)" offset="0.230469"/><stop stop-opacity="1" stop-color="rgb(50.938416%, 27.508545%, 90.750122%)" offset="0.234375"/><stop stop-opacity="1" stop-color="rgb(51.200867%, 27.633667%, 90.441895%)" offset="0.238281"/><stop stop-opacity="1" stop-color="rgb(51.463318%, 27.760315%, 90.133667%)" offset="0.242188"/><stop stop-opacity="1" stop-color="rgb(51.725769%, 27.886963%, 89.825439%)" offset="0.246094"/><stop stop-opacity="1" stop-color="rgb(51.98822%, 28.013611%, 89.517212%)" offset="0.25"/><stop stop-opacity="1" stop-color="rgb(52.250671%, 28.138733%, 89.208984%)" offset="0.253906"/><stop stop-opacity="1" stop-color="rgb(52.513123%, 28.265381%, 88.902283%)" offset="0.257812"/><stop stop-opacity="1" stop-color="rgb(52.775574%, 28.392029%, 88.594055%)" offset="0.261719"/><stop stop-opacity="1" stop-color="rgb(53.038025%, 28.518677%, 88.285828%)" offset="0.265625"/><stop stop-opacity="1" stop-color="rgb(53.300476%, 28.643799%, 87.9776%)" offset="0.269531"/><stop stop-opacity="1" stop-color="rgb(53.564453%, 28.770447%, 87.670898%)" offset="0.273438"/><stop stop-opacity="1" stop-color="rgb(53.826904%, 28.897095%, 87.362671%)" offset="0.277344"/><stop stop-opacity="1" stop-color="rgb(54.089355%, 29.023743%, 87.054443%)" offset="0.28125"/><stop stop-opacity="1" stop-color="rgb(54.351807%, 29.148865%, 86.746216%)" offset="0.285156"/><stop stop-opacity="1" stop-color="rgb(54.614258%, 29.275513%, 86.437988%)" offset="0.289062"/><stop stop-opacity="1" stop-color="rgb(54.876709%, 29.402161%, 86.129761%)" offset="0.292969"/><stop stop-opacity="1" stop-color="rgb(55.13916%, 29.528809%, 85.823059%)" offset="0.296875"/><stop stop-opacity="1" stop-color="rgb(55.401611%, 29.653931%, 85.514832%)" offset="0.300781"/><stop stop-opacity="1" stop-color="rgb(55.664062%, 29.780579%, 85.206604%)" offset="0.304688"/><stop stop-opacity="1" stop-color="rgb(55.926514%, 29.907227%, 84.898376%)" offset="0.308594"/><stop stop-opacity="1" stop-color="rgb(56.188965%, 30.033875%, 84.591675%)" offset="0.3125"/><stop stop-opacity="1" stop-color="rgb(56.451416%, 30.158997%, 84.283447%)" offset="0.316406"/><stop stop-opacity="1" stop-color="rgb(56.713867%, 30.285645%, 83.97522%)" offset="0.320312"/><stop stop-opacity="1" stop-color="rgb(56.976318%, 30.412292%, 83.666992%)" offset="0.324219"/><stop stop-opacity="1" stop-color="rgb(57.23877%, 30.53894%, 83.358765%)" offset="0.328125"/><stop stop-opacity="1" stop-color="rgb(57.501221%, 30.664062%, 83.050537%)" offset="0.332031"/><stop stop-opacity="1" stop-color="rgb(57.763672%, 30.79071%, 82.743835%)" offset="0.335938"/><stop stop-opacity="1" stop-color="rgb(58.026123%, 30.917358%, 82.435608%)" offset="0.339844"/><stop stop-opacity="1" stop-color="rgb(58.288574%, 31.044006%, 82.12738%)" offset="0.34375"/><stop stop-opacity="1" stop-color="rgb(58.551025%, 31.169128%, 81.819153%)" offset="0.347656"/><stop stop-opacity="1" stop-color="rgb(58.813477%, 31.295776%, 81.512451%)" offset="0.351562"/><stop stop-opacity="1" stop-color="rgb(59.075928%, 31.422424%, 81.204224%)" offset="0.355469"/><stop stop-opacity="1" stop-color="rgb(59.338379%, 31.549072%, 80.895996%)" offset="0.359375"/><stop stop-opacity="1" stop-color="rgb(59.60083%, 31.674194%, 80.587769%)" offset="0.363281"/><stop stop-opacity="1" stop-color="rgb(59.864807%, 31.800842%, 80.279541%)" offset="0.367188"/><stop stop-opacity="1" stop-color="rgb(60.127258%, 31.92749%, 79.971313%)" offset="0.371094"/><stop stop-opacity="1" stop-color="rgb(60.389709%, 32.054138%, 79.664612%)" offset="0.375"/><stop stop-opacity="1" stop-color="rgb(60.652161%, 32.17926%, 79.356384%)" offset="0.378906"/><stop stop-opacity="1" stop-color="rgb(60.914612%, 32.305908%, 79.048157%)" offset="0.382812"/><stop stop-opacity="1" stop-color="rgb(61.177063%, 32.432556%, 78.739929%)" offset="0.386719"/><stop stop-opacity="1" stop-color="rgb(61.439514%, 32.559204%, 78.433228%)" offset="0.390625"/><stop stop-opacity="1" stop-color="rgb(61.701965%, 32.684326%, 78.125%)" offset="0.394531"/><stop stop-opacity="1" stop-color="rgb(61.964417%, 32.810974%, 77.816772%)" offset="0.398438"/><stop stop-opacity="1" stop-color="rgb(62.226868%, 32.937622%, 77.508545%)" offset="0.402344"/><stop stop-opacity="1" stop-color="rgb(62.489319%, 33.06427%, 77.200317%)" offset="0.40625"/><stop stop-opacity="1" stop-color="rgb(62.75177%, 33.189392%, 76.89209%)" offset="0.410156"/><stop stop-opacity="1" stop-color="rgb(63.014221%, 33.31604%, 76.585388%)" offset="0.414062"/><stop stop-opacity="1" stop-color="rgb(63.276672%, 33.442688%, 76.277161%)" offset="0.417969"/><stop stop-opacity="1" stop-color="rgb(63.539124%, 33.569336%, 75.968933%)" offset="0.421875"/><stop stop-opacity="1" stop-color="rgb(63.801575%, 33.694458%, 75.660706%)" offset="0.425781"/><stop stop-opacity="1" stop-color="rgb(64.064026%, 33.821106%, 75.354004%)" offset="0.429688"/><stop stop-opacity="1" stop-color="rgb(64.326477%, 33.947754%, 75.045776%)" offset="0.433594"/><stop stop-opacity="1" stop-color="rgb(64.588928%, 34.074402%, 74.737549%)" offset="0.4375"/><stop stop-opacity="1" stop-color="rgb(64.851379%, 34.199524%, 74.429321%)" offset="0.441406"/><stop stop-opacity="1" stop-color="rgb(65.113831%, 34.326172%, 74.121094%)" offset="0.445313"/><stop stop-opacity="1" stop-color="rgb(65.376282%, 34.45282%, 73.812866%)" offset="0.449219"/><stop stop-opacity="1" stop-color="rgb(65.638733%, 34.579468%, 73.506165%)" offset="0.453125"/><stop stop-opacity="1" stop-color="rgb(65.901184%, 34.70459%, 73.197937%)" offset="0.457031"/><stop stop-opacity="1" stop-color="rgb(66.163635%, 34.831238%, 72.889709%)" offset="0.460938"/><stop stop-opacity="1" stop-color="rgb(66.426086%, 34.957886%, 72.581482%)" offset="0.464844"/><stop stop-opacity="1" stop-color="rgb(66.690063%, 35.084534%, 72.27478%)" offset="0.46875"/><stop stop-opacity="1" stop-color="rgb(66.952515%, 35.209656%, 71.966553%)" offset="0.472656"/><stop stop-opacity="1" stop-color="rgb(67.214966%, 35.336304%, 71.658325%)" offset="0.476563"/><stop stop-opacity="1" stop-color="rgb(67.477417%, 35.462952%, 71.350098%)" offset="0.480469"/><stop stop-opacity="1" stop-color="rgb(67.739868%, 35.5896%, 71.04187%)" offset="0.484375"/><stop stop-opacity="1" stop-color="rgb(68.002319%, 35.714722%, 70.733643%)" offset="0.488281"/><stop stop-opacity="1" stop-color="rgb(68.264771%, 35.84137%, 70.426941%)" offset="0.492188"/><stop stop-opacity="1" stop-color="rgb(68.527222%, 35.968018%, 70.118713%)" offset="0.496094"/><stop stop-opacity="1" stop-color="rgb(68.789673%, 36.094666%, 69.810486%)" offset="0.5"/><stop stop-opacity="1" stop-color="rgb(69.052124%, 36.219788%, 69.502258%)" offset="0.503906"/><stop stop-opacity="1" stop-color="rgb(69.314575%, 36.346436%, 69.195557%)" offset="0.507812"/><stop stop-opacity="1" stop-color="rgb(69.577026%, 36.473083%, 68.887329%)" offset="0.511719"/><stop stop-opacity="1" stop-color="rgb(69.839478%, 36.599731%, 68.579102%)" offset="0.515625"/><stop stop-opacity="1" stop-color="rgb(70.101929%, 36.724854%, 68.270874%)" offset="0.519531"/><stop stop-opacity="1" stop-color="rgb(70.36438%, 36.851501%, 67.962646%)" offset="0.523438"/><stop stop-opacity="1" stop-color="rgb(70.626831%, 36.978149%, 67.654419%)" offset="0.527344"/><stop stop-opacity="1" stop-color="rgb(70.889282%, 37.104797%, 67.347717%)" offset="0.53125"/><stop stop-opacity="1" stop-color="rgb(71.151733%, 37.229919%, 67.03949%)" offset="0.535156"/><stop stop-opacity="1" stop-color="rgb(71.414185%, 37.356567%, 66.731262%)" offset="0.539062"/><stop stop-opacity="1" stop-color="rgb(71.676636%, 37.483215%, 66.423035%)" offset="0.542969"/><stop stop-opacity="1" stop-color="rgb(71.939087%, 37.609863%, 66.114807%)" offset="0.546875"/><stop stop-opacity="1" stop-color="rgb(72.201538%, 37.734985%, 65.80658%)" offset="0.550781"/><stop stop-opacity="1" stop-color="rgb(72.463989%, 37.861633%, 65.499878%)" offset="0.554688"/><stop stop-opacity="1" stop-color="rgb(72.72644%, 37.988281%, 65.19165%)" offset="0.558594"/><stop stop-opacity="1" stop-color="rgb(72.990417%, 38.114929%, 64.883423%)" offset="0.5625"/><stop stop-opacity="1" stop-color="rgb(73.252869%, 38.240051%, 64.575195%)" offset="0.566406"/><stop stop-opacity="1" stop-color="rgb(73.51532%, 38.366699%, 64.268494%)" offset="0.570312"/><stop stop-opacity="1" stop-color="rgb(73.777771%, 38.493347%, 63.960266%)" offset="0.574219"/><stop stop-opacity="1" stop-color="rgb(74.040222%, 38.619995%, 63.652039%)" offset="0.578125"/><stop stop-opacity="1" stop-color="rgb(74.302673%, 38.746643%, 63.343811%)" offset="0.582031"/><stop stop-opacity="1" stop-color="rgb(74.565125%, 38.873291%, 63.035583%)" offset="0.585938"/><stop stop-opacity="1" stop-color="rgb(74.827576%, 38.998413%, 62.727356%)" offset="0.589844"/><stop stop-opacity="1" stop-color="rgb(75.090027%, 39.125061%, 62.420654%)" offset="0.59375"/><stop stop-opacity="1" stop-color="rgb(75.352478%, 39.251709%, 62.112427%)" offset="0.597656"/><stop stop-opacity="1" stop-color="rgb(75.614929%, 39.378357%, 61.804199%)" offset="0.601562"/><stop stop-opacity="1" stop-color="rgb(75.87738%, 39.503479%, 61.495972%)" offset="0.605469"/><stop stop-opacity="1" stop-color="rgb(76.139832%, 39.630127%, 61.18927%)" offset="0.609375"/><stop stop-opacity="1" stop-color="rgb(76.402283%, 39.756775%, 60.881042%)" offset="0.613281"/><stop stop-opacity="1" stop-color="rgb(76.664734%, 39.883423%, 60.572815%)" offset="0.617188"/><stop stop-opacity="1" stop-color="rgb(76.927185%, 40.008545%, 60.264587%)" offset="0.621094"/><stop stop-opacity="1" stop-color="rgb(77.189636%, 40.135193%, 59.95636%)" offset="0.625"/><stop stop-opacity="1" stop-color="rgb(77.452087%, 40.261841%, 59.648132%)" offset="0.628906"/><stop stop-opacity="1" stop-color="rgb(77.714539%, 40.388489%, 59.341431%)" offset="0.632813"/><stop stop-opacity="1" stop-color="rgb(77.97699%, 40.513611%, 59.033203%)" offset="0.636719"/><stop stop-opacity="1" stop-color="rgb(78.239441%, 40.640259%, 58.724976%)" offset="0.640625"/><stop stop-opacity="1" stop-color="rgb(78.501892%, 40.766907%, 58.416748%)" offset="0.644531"/><stop stop-opacity="1" stop-color="rgb(78.764343%, 40.893555%, 58.110046%)" offset="0.648438"/><stop stop-opacity="1" stop-color="rgb(79.026794%, 41.018677%, 57.801819%)" offset="0.652344"/><stop stop-opacity="1" stop-color="rgb(79.290771%, 41.145325%, 57.493591%)" offset="0.65625"/><stop stop-opacity="1" stop-color="rgb(79.553223%, 41.271973%, 57.185364%)" offset="0.660156"/><stop stop-opacity="1" stop-color="rgb(79.815674%, 41.398621%, 56.877136%)" offset="0.664063"/><stop stop-opacity="1" stop-color="rgb(80.078125%, 41.523743%, 56.568909%)" offset="0.667969"/><stop stop-opacity="1" stop-color="rgb(80.340576%, 41.650391%, 56.262207%)" offset="0.671875"/><stop stop-opacity="1" stop-color="rgb(80.603027%, 41.777039%, 55.953979%)" offset="0.675781"/><stop stop-opacity="1" stop-color="rgb(80.865479%, 41.903687%, 55.645752%)" offset="0.679688"/><stop stop-opacity="1" stop-color="rgb(81.12793%, 42.028809%, 55.337524%)" offset="0.683594"/><stop stop-opacity="1" stop-color="rgb(81.390381%, 42.155457%, 55.030823%)" offset="0.6875"/><stop stop-opacity="1" stop-color="rgb(81.652832%, 42.282104%, 54.722595%)" offset="0.691406"/><stop stop-opacity="1" stop-color="rgb(81.915283%, 42.408752%, 54.414368%)" offset="0.695313"/><stop stop-opacity="1" stop-color="rgb(82.177734%, 42.533875%, 54.10614%)" offset="0.699219"/><stop stop-opacity="1" stop-color="rgb(82.440186%, 42.660522%, 53.797913%)" offset="0.703125"/><stop stop-opacity="1" stop-color="rgb(82.702637%, 42.78717%, 53.489685%)" offset="0.707031"/><stop stop-opacity="1" stop-color="rgb(82.965088%, 42.913818%, 53.182983%)" offset="0.710937"/><stop stop-opacity="1" stop-color="rgb(83.227539%, 43.03894%, 52.874756%)" offset="0.714844"/><stop stop-opacity="1" stop-color="rgb(83.48999%, 43.165588%, 52.566528%)" offset="0.71875"/><stop stop-opacity="1" stop-color="rgb(83.752441%, 43.292236%, 52.258301%)" offset="0.722656"/><stop stop-opacity="1" stop-color="rgb(84.014893%, 43.418884%, 51.951599%)" offset="0.726562"/><stop stop-opacity="1" stop-color="rgb(84.277344%, 43.544006%, 51.643372%)" offset="0.730469"/><stop stop-opacity="1" stop-color="rgb(84.539795%, 43.670654%, 51.335144%)" offset="0.734375"/><stop stop-opacity="1" stop-color="rgb(84.802246%, 43.797302%, 51.026917%)" offset="0.738281"/><stop stop-opacity="1" stop-color="rgb(85.064697%, 43.92395%, 50.718689%)" offset="0.742187"/><stop stop-opacity="1" stop-color="rgb(85.327148%, 44.049072%, 50.410461%)" offset="0.746094"/><stop stop-opacity="1" stop-color="rgb(85.5896%, 44.17572%, 50.10376%)" offset="0.75"/><stop stop-opacity="1" stop-color="rgb(85.852051%, 44.302368%, 49.795532%)" offset="0.753906"/><stop stop-opacity="1" stop-color="rgb(86.116028%, 44.429016%, 49.487305%)" offset="0.757812"/><stop stop-opacity="1" stop-color="rgb(86.378479%, 44.554138%, 49.179077%)" offset="0.761719"/><stop stop-opacity="1" stop-color="rgb(86.64093%, 44.680786%, 48.872375%)" offset="0.765625"/><stop stop-opacity="1" stop-color="rgb(86.903381%, 44.807434%, 48.564148%)" offset="0.769531"/><stop stop-opacity="1" stop-color="rgb(87.165833%, 44.934082%, 48.25592%)" offset="0.773437"/><stop stop-opacity="1" stop-color="rgb(87.428284%, 45.059204%, 47.947693%)" offset="0.777344"/><stop stop-opacity="1" stop-color="rgb(87.690735%, 45.185852%, 47.639465%)" offset="0.78125"/><stop stop-opacity="1" stop-color="rgb(87.953186%, 45.3125%, 47.331238%)" offset="0.785156"/><stop stop-opacity="1" stop-color="rgb(88.215637%, 45.439148%, 47.024536%)" offset="0.789062"/><stop stop-opacity="1" stop-color="rgb(88.478088%, 45.56427%, 46.716309%)" offset="0.792969"/><stop stop-opacity="1" stop-color="rgb(88.74054%, 45.690918%, 46.408081%)" offset="0.796875"/><stop stop-opacity="1" stop-color="rgb(89.002991%, 45.817566%, 46.099854%)" offset="0.800781"/><stop stop-opacity="1" stop-color="rgb(89.265442%, 45.944214%, 45.793152%)" offset="0.804687"/><stop stop-opacity="1" stop-color="rgb(89.527893%, 46.069336%, 45.484924%)" offset="0.808594"/><stop stop-opacity="1" stop-color="rgb(89.790344%, 46.195984%, 45.176697%)" offset="0.8125"/><stop stop-opacity="1" stop-color="rgb(90.052795%, 46.322632%, 44.868469%)" offset="0.816406"/><stop stop-opacity="1" stop-color="rgb(90.315247%, 46.44928%, 44.560242%)" offset="0.820312"/><stop stop-opacity="1" stop-color="rgb(90.577698%, 46.574402%, 44.252014%)" offset="0.824219"/><stop stop-opacity="1" stop-color="rgb(90.840149%, 46.70105%, 43.945312%)" offset="0.828125"/><stop stop-opacity="1" stop-color="rgb(91.1026%, 46.827698%, 43.637085%)" offset="0.832031"/><stop stop-opacity="1" stop-color="rgb(91.365051%, 46.954346%, 43.328857%)" offset="0.835937"/><stop stop-opacity="1" stop-color="rgb(91.627502%, 47.079468%, 43.02063%)" offset="0.839844"/><stop stop-opacity="1" stop-color="rgb(91.889954%, 47.206116%, 42.712402%)" offset="0.84375"/><stop stop-opacity="1" stop-color="rgb(92.152405%, 47.332764%, 42.404175%)" offset="0.847656"/><stop stop-opacity="1" stop-color="rgb(92.416382%, 47.459412%, 42.097473%)" offset="0.851562"/><stop stop-opacity="1" stop-color="rgb(92.457581%, 47.479248%, 42.048645%)" offset="0.859375"/><stop stop-opacity="1" stop-color="rgb(92.498779%, 47.499084%, 41.999817%)" offset="0.875"/><stop stop-opacity="1" stop-color="rgb(92.498779%, 47.499084%, 41.999817%)" offset="1"/></linearGradient></defs><g clip-path="url(#3d4b9fa411)"><g clip-path="url(#eb570d3c7c)"><path fill="url(#ae95613353)" d="M 15.003906 10.28125 L 15.003906 139.6875 L 130.5 139.6875 L 130.5 10.28125 Z M 15.003906 10.28125 " fill-rule="nonzero"/></g></g><g fill="#ec796b" fill-opacity="1"><g transform="translate(146.778409, 92.999997)"><g><path d="M 38.6875 -51.46875 L 38.6875 -41.25 L 27.015625 -41.25 L 27.015625 -10.21875 L 38.6875 -10.21875 L 38.6875 0 L 3.65625 0 L 3.65625 -10.21875 L 15.328125 -10.21875 L 15.328125 -41.25 L 3.65625 -41.25 L 3.65625 -51.46875 Z M 38.6875 -51.46875 "/></g></g></g><g fill="#ec796b" fill-opacity="1"><g transform="translate(189.116168, 92.999997)"><g><path d="M 26.578125 -27.375 C 24.484375 -27.375 22.644531 -26.945312 21.0625 -26.09375 C 19.476562 -25.238281 18.25 -23.8125 17.375 -21.8125 C 16.5 -19.820312 16.0625 -17.101562 16.0625 -13.65625 L 16.0625 0 L 4.375 0 L 4.375 -36.859375 L 16.0625 -36.859375 L 16.0625 -32.40625 L 13.875 -25.84375 L 16.796875 -25.84375 C 17.523438 -29.15625 19.039062 -31.941406 21.34375 -34.203125 C 23.65625 -36.460938 26.785156 -37.59375 30.734375 -37.59375 C 35.453125 -37.59375 39.148438 -36.070312 41.828125 -33.03125 C 44.503906 -29.988281 45.84375 -25.617188 45.84375 -19.921875 L 45.84375 0 L 34.15625 0 L 34.15625 -18.109375 C 34.15625 -21.460938 33.597656 -23.84375 32.484375 -25.25 C 31.367188 -26.664062 29.398438 -27.375 26.578125 -27.375 Z M 26.578125 -27.375 "/></g></g></g><g fill="#ec796b" fill-opacity="1"><g transform="translate(238.607547, 92.999997)"><g><path d="M 15.03125 -40.515625 C 12.894531 -40.515625 11.21875 -41.015625 10 -42.015625 C 8.78125 -43.015625 8.171875 -44.460938 8.171875 -46.359375 C 8.171875 -48.203125 8.78125 -49.632812 10 -50.65625 C 11.21875 -51.675781 12.894531 -52.1875 15.03125 -52.1875 C 17.175781 -52.1875 18.878906 -51.675781 20.140625 -50.65625 C 21.410156 -49.632812 22.046875 -48.203125 22.046875 -46.359375 C 22.046875 -44.460938 21.410156 -43.015625 20.140625 -42.015625 C 18.878906 -41.015625 17.175781 -40.515625 15.03125 -40.515625 Z M 13.875 14.59375 L 0.734375 14.59375 L 8.46875 1.890625 C 8.957031 1.117188 9.285156 0.332031 9.453125 -0.46875 C 9.617188 -1.269531 9.703125 -2.132812 9.703125 -3.0625 L 9.703125 -27.078125 L 0.734375 -26.640625 L 0.734375 -36.859375 L 15.546875 -37.375 C 17.546875 -37.46875 19.09375 -36.976562 20.1875 -35.90625 C 21.28125 -34.84375 21.828125 -33.3125 21.828125 -31.3125 L 21.828125 -2.1875 C 21.828125 -1.257812 21.738281 -0.421875 21.5625 0.328125 C 21.394531 1.078125 21.070312 1.894531 20.59375 2.78125 Z M 13.875 14.59375 "/></g></g></g><g fill="#ec796b" fill-opacity="1"><g transform="translate(263.937212, 92.999997)"><g><path d="M 2.921875 -18.90625 C 2.921875 -22.800781 3.75 -26.144531 5.40625 -28.9375 C 7.0625 -31.738281 9.347656 -33.878906 12.265625 -35.359375 C 15.179688 -36.847656 18.539062 -37.59375 22.34375 -37.59375 C 26.1875 -37.59375 29.566406 -36.875 32.484375 -35.4375 C 35.398438 -34 37.6875 -31.941406 39.34375 -29.265625 C 41 -26.597656 41.828125 -23.390625 41.828125 -19.640625 L 41.828125 -15.984375 L 13.875 -15.984375 C 13.875 -13.890625 14.660156 -12.160156 16.234375 -10.796875 C 17.816406 -9.441406 20.265625 -8.765625 23.578125 -8.765625 C 25.617188 -8.765625 27.359375 -9.128906 28.796875 -9.859375 C 30.234375 -10.585938 31.125 -11.632812 31.46875 -13 L 43.140625 -13 C 42.941406 -11.675781 42.414062 -10.222656 41.5625 -8.640625 C 40.71875 -7.066406 39.492188 -5.5625 37.890625 -4.125 C 36.285156 -2.6875 34.300781 -1.515625 31.9375 -0.609375 C 29.570312 0.285156 26.785156 0.734375 23.578125 0.734375 C 18.859375 0.734375 14.976562 -0.175781 11.9375 -2 C 8.894531 -3.832031 6.628906 -6.242188 5.140625 -9.234375 C 3.660156 -12.222656 2.921875 -15.445312 2.921875 -18.90625 Z M 13.875 -22.5625 L 30.875 -22.5625 C 30.875 -23.96875 30.265625 -25.242188 29.046875 -26.390625 C 27.835938 -27.535156 25.601562 -28.109375 22.34375 -28.109375 C 19.082031 -28.109375 16.851562 -27.535156 15.65625 -26.390625 C 14.46875 -25.242188 13.875 -23.96875 13.875 -22.5625 Z M 13.875 -22.5625 "/></g></g></g><g fill="#ec796b" fill-opacity="1"><g transform="translate(309.997779, 92.999997)"><g><path d="M 2.921875 -18.46875 C 2.921875 -22.550781 3.785156 -26.015625 5.515625 -28.859375 C 7.242188 -31.710938 9.613281 -33.878906 12.625 -35.359375 C 15.644531 -36.847656 19.125 -37.59375 23.0625 -37.59375 C 26.425781 -37.59375 29.578125 -36.992188 32.515625 -35.796875 C 35.460938 -34.609375 37.882812 -32.820312 39.78125 -30.4375 C 41.675781 -28.050781 42.695312 -25.109375 42.84375 -21.609375 L 31.171875 -21.609375 C 30.972656 -23.265625 30.15625 -24.640625 28.71875 -25.734375 C 27.289062 -26.828125 25.40625 -27.375 23.0625 -27.375 C 20.289062 -27.375 18.1875 -26.59375 16.75 -25.03125 C 15.3125 -23.476562 14.59375 -21.289062 14.59375 -18.46875 C 14.59375 -15.644531 15.3125 -13.441406 16.75 -11.859375 C 18.1875 -10.273438 20.289062 -9.484375 23.0625 -9.484375 C 25.40625 -9.484375 27.289062 -10.03125 28.71875 -11.125 C 30.15625 -12.226562 30.972656 -13.601562 31.171875 -15.25 L 42.84375 -15.25 C 42.695312 -11.75 41.675781 -8.816406 39.78125 -6.453125 C 37.882812 -4.097656 35.460938 -2.3125 32.515625 -1.09375 C 29.578125 0.125 26.425781 0.734375 23.0625 0.734375 C 19.125 0.734375 15.644531 -0.00390625 12.625 -1.484375 C 9.613281 -2.972656 7.242188 -5.15625 5.515625 -8.03125 C 3.785156 -10.90625 2.921875 -14.382812 2.921875 -18.46875 Z M 2.921875 -18.46875 "/></g></g></g><g fill="#ec796b" fill-opacity="1"><g transform="translate(355.766373, 92.999997)"><g><path d="M 21.171875 -26.640625 L 21.171875 -9.484375 L 34.75 -10.21875 L 34.75 0 L 15.6875 0.734375 C 13.695312 0.773438 12.164062 0.25 11.09375 -0.84375 C 10.019531 -1.9375 9.484375 -3.476562 9.484375 -5.46875 L 9.484375 -26.640625 L 0.734375 -26.640625 L 0.734375 -36.859375 L 9.484375 -36.859375 L 9.484375 -43.796875 L 21.171875 -47.453125 L 21.171875 -36.859375 L 33.28125 -36.859375 L 33.28125 -26.640625 Z M 21.171875 -26.640625 "/></g></g></g><g fill="#ec796b" fill-opacity="1"><g transform="translate(392.702406, 92.999997)"><g><path d="M 41.90625 -30.15625 L 41.90625 -51.46875 L 53.578125 -51.46875 L 53.578125 0 L 41.90625 0 L 41.90625 -19.921875 L 16.0625 -19.921875 L 16.0625 0 L 4.375 0 L 4.375 -51.46875 L 16.0625 -51.46875 L 16.0625 -30.15625 Z M 41.90625 -30.15625 "/></g></g></g><g fill="#ec796b" fill-opacity="1"><g transform="translate(450.661326, 92.999997)"><g><path d="M 18.03125 -40.515625 C 15.882812 -40.515625 14.203125 -41.015625 12.984375 -42.015625 C 11.773438 -43.015625 11.171875 -44.460938 11.171875 -46.359375 C 11.171875 -48.203125 11.773438 -49.632812 12.984375 -50.65625 C 14.203125 -51.675781 15.882812 -52.1875 18.03125 -52.1875 C 20.175781 -52.1875 21.878906 -51.675781 23.140625 -50.65625 C 24.398438 -49.632812 25.03125 -48.203125 25.03125 -46.359375 C 25.03125 -44.460938 24.398438 -43.015625 23.140625 -42.015625 C 21.878906 -41.015625 20.175781 -40.515625 18.03125 -40.515625 Z M 35.046875 0 L 2.921875 0 L 2.921875 -10.21875 L 13.359375 -10.21875 L 13.359375 -27.078125 L 4.375 -26.640625 L 4.375 -36.859375 L 18.25 -37.59375 C 20.289062 -37.6875 21.859375 -37.195312 22.953125 -36.125 C 24.046875 -35.0625 24.59375 -33.507812 24.59375 -31.46875 L 24.59375 -10.21875 L 35.046875 -10.21875 Z M 35.046875 0 "/></g></g></g><g fill="#ec796b" fill-opacity="1"><g transform="translate(487.159394, 92.999997)"><g><path d="M 23.65625 -10.21875 L 32.046875 -36.859375 L 43.578125 -36.859375 L 31.6875 0 L 12.703125 0 L 0.734375 -36.859375 L 12.265625 -36.859375 L 20.734375 -10.21875 Z M 23.65625 -10.21875 "/></g></g></g><g fill="#ec796b" fill-opacity="1"><g transform="translate(531.468054, 92.999997)"><g><path d="M 2.921875 -18.90625 C 2.921875 -22.800781 3.75 -26.144531 5.40625 -28.9375 C 7.0625 -31.738281 9.347656 -33.878906 12.265625 -35.359375 C 15.179688 -36.847656 18.539062 -37.59375 22.34375 -37.59375 C 26.1875 -37.59375 29.566406 -36.875 32.484375 -35.4375 C 35.398438 -34 37.6875 -31.941406 39.34375 -29.265625 C 41 -26.597656 41.828125 -23.390625 41.828125 -19.640625 L 41.828125 -15.984375 L 13.875 -15.984375 C 13.875 -13.890625 14.660156 -12.160156 16.234375 -10.796875 C 17.816406 -9.441406 20.265625 -8.765625 23.578125 -8.765625 C 25.617188 -8.765625 27.359375 -9.128906 28.796875 -9.859375 C 30.234375 -10.585938 31.125 -11.632812 31.46875 -13 L 43.140625 -13 C 42.941406 -11.675781 42.414062 -10.222656 41.5625 -8.640625 C 40.71875 -7.066406 39.492188 -5.5625 37.890625 -4.125 C 36.285156 -2.6875 34.300781 -1.515625 31.9375 -0.609375 C 29.570312 0.285156 26.785156 0.734375 23.578125 0.734375 C 18.859375 0.734375 14.976562 -0.175781 11.9375 -2 C 8.894531 -3.832031 6.628906 -6.242188 5.140625 -9.234375 C 3.660156 -12.222656 2.921875 -15.445312 2.921875 -18.90625 Z M 13.875 -22.5625 L 30.875 -22.5625 C 30.875 -23.96875 30.265625 -25.242188 29.046875 -26.390625 C 27.835938 -27.535156 25.601562 -28.109375 22.34375 -28.109375 C 19.082031 -28.109375 16.851562 -27.535156 15.65625 -26.390625 C 14.46875 -25.242188 13.875 -23.96875 13.875 -22.5625 Z M 13.875 -22.5625 "/></g></g></g></svg>